<?xml version="1.0" standalone="no"?><!DOCTYPE svg PUBLIC "-//W3C//DTD SVG 1.1//EN" "http://www.w3.org/Graphics/SVG/1.1/DTD/svg11.dtd"><svg t="1611215037317" class="icon" viewBox="0 0 1024 1024" version="1.1" xmlns="http://www.w3.org/2000/svg" p-id="4248" xmlns:xlink="http://www.w3.org/1999/xlink" width="48" height="48"><defs><style type="text/css"></style></defs><path d="M512 151.272727a139.636364 139.636364 0 1 1-139.636364 139.636364 139.636364 139.636364 0 0 1 139.636364-139.636364m0-69.818182a209.454545 209.454545 0 1 0 209.454545 209.454546 209.454545 209.454545 0 0 0-209.454545-209.454546zM791.272727 628.363636a69.818182 69.818182 0 0 1 69.818182 69.818182v139.636364H162.909091v-139.636364a69.818182 69.818182 0 0 1 69.818182-69.818182h558.545454m0-69.818181H232.727273a139.636364 139.636364 0 0 0-139.636364 139.636363v162.909091a46.545455 46.545455 0 0 0 46.545455 46.545455h744.727272a46.545455 46.545455 0 0 0 46.545455-46.545455v-162.909091a139.636364 139.636364 0 0 0-139.636364-139.636363z" p-id="4249" fill="#d4237a"></path></svg>